<mxfile host="app.diagrams.net" modified="2023-10-23T12:18:56.216Z" agent="Mozilla/5.0 (Macintosh; Intel Mac OS X 10_15_7) AppleWebKit/537.36 (KHTML, like Gecko) Chrome/118.0.0.0 Safari/537.36" etag="6G9ofxfiUvOPD5g3OejI" version="21.7.5" type="github">
  <diagram id="2lIywbup4bS1AB31_zoz" name="第 1 页">
    <mxGraphModel dx="909" dy="581" grid="1" gridSize="10" guides="1" tooltips="1" connect="1" arrows="1" fold="1" page="1" pageScale="1" pageWidth="827" pageHeight="1169" math="0" shadow="0">
      <root>
        <mxCell id="0" />
        <mxCell id="1" parent="0" />
        <mxCell id="LJu-U1HtzfOYV5o9qGT4-5" value="" style="whiteSpace=wrap;html=1;shadow=0;strokeColor=#000000;strokeWidth=3;" parent="1" vertex="1">
          <mxGeometry x="660" y="90" width="310" height="110" as="geometry" />
        </mxCell>
        <mxCell id="WfkUiSgYCt_blRrE_JdE-26" value="" style="whiteSpace=wrap;html=1;shadow=0;fillColor=#FFFFFF;strokeColor=default;" parent="1" vertex="1">
          <mxGeometry x="450" y="60" width="30" height="30" as="geometry" />
        </mxCell>
        <mxCell id="WfkUiSgYCt_blRrE_JdE-25" value="" style="whiteSpace=wrap;html=1;shadow=0;fillColor=#FFFFFF;" parent="1" vertex="1">
          <mxGeometry x="460" y="70" width="30" height="30" as="geometry" />
        </mxCell>
        <mxCell id="WfkUiSgYCt_blRrE_JdE-1" value="" style="whiteSpace=wrap;html=1;aspect=fixed;fillColor=default;fontColor=default;strokeColor=default;" parent="1" vertex="1">
          <mxGeometry x="260" y="150" width="20" height="20" as="geometry" />
        </mxCell>
        <mxCell id="WfkUiSgYCt_blRrE_JdE-2" value="" style="whiteSpace=wrap;html=1;aspect=fixed;" parent="1" vertex="1">
          <mxGeometry x="260" y="170" width="20" height="20" as="geometry" />
        </mxCell>
        <mxCell id="WfkUiSgYCt_blRrE_JdE-3" value="" style="whiteSpace=wrap;html=1;aspect=fixed;fillColor=default;strokeColor=default;" parent="1" vertex="1">
          <mxGeometry x="260" y="190" width="20" height="20" as="geometry" />
        </mxCell>
        <mxCell id="WfkUiSgYCt_blRrE_JdE-4" value="" style="whiteSpace=wrap;html=1;aspect=fixed;fillColor=default;strokeColor=default;" parent="1" vertex="1">
          <mxGeometry x="260" y="210" width="20" height="20" as="geometry" />
        </mxCell>
        <mxCell id="WfkUiSgYCt_blRrE_JdE-5" value="" style="whiteSpace=wrap;html=1;aspect=fixed;fillColor=default;strokeColor=default;" parent="1" vertex="1">
          <mxGeometry x="260" y="230" width="20" height="20" as="geometry" />
        </mxCell>
        <mxCell id="WfkUiSgYCt_blRrE_JdE-6" value="" style="whiteSpace=wrap;html=1;aspect=fixed;fillColor=default;strokeColor=default;" parent="1" vertex="1">
          <mxGeometry x="260" y="250" width="20" height="20" as="geometry" />
        </mxCell>
        <mxCell id="WfkUiSgYCt_blRrE_JdE-7" value="" style="whiteSpace=wrap;html=1;aspect=fixed;fillColor=default;strokeColor=default;" parent="1" vertex="1">
          <mxGeometry x="260" y="270" width="20" height="20" as="geometry" />
        </mxCell>
        <mxCell id="WfkUiSgYCt_blRrE_JdE-8" value="" style="shape=curlyBracket;whiteSpace=wrap;html=1;rounded=1;flipH=1;size=0.5;" parent="1" vertex="1">
          <mxGeometry x="300" y="160" width="20" height="120" as="geometry" />
        </mxCell>
        <mxCell id="WfkUiSgYCt_blRrE_JdE-9" value="" style="endArrow=classic;html=1;rounded=0;exitX=0.1;exitY=0.5;exitDx=0;exitDy=0;exitPerimeter=0;entryX=0;entryY=0.5;entryDx=0;entryDy=0;" parent="1" source="WfkUiSgYCt_blRrE_JdE-8" target="WfkUiSgYCt_blRrE_JdE-10" edge="1">
          <mxGeometry width="50" height="50" relative="1" as="geometry">
            <mxPoint x="390" y="250" as="sourcePoint" />
            <mxPoint x="330" y="220" as="targetPoint" />
          </mxGeometry>
        </mxCell>
        <mxCell id="WfkUiSgYCt_blRrE_JdE-10" value="" style="shape=orEllipse;perimeter=ellipsePerimeter;whiteSpace=wrap;html=1;backgroundOutline=1;shadow=0;strokeWidth=2;" parent="1" vertex="1">
          <mxGeometry x="336.25" y="206.25" width="27.5" height="27.5" as="geometry" />
        </mxCell>
        <mxCell id="WfkUiSgYCt_blRrE_JdE-11" value="" style="rounded=1;whiteSpace=wrap;html=1;strokeWidth=2;fillWeight=4;hachureGap=8;hachureAngle=45;fillColor=#000000;sketch=1;" parent="1" vertex="1">
          <mxGeometry x="335" y="290" width="30" height="30" as="geometry" />
        </mxCell>
        <mxCell id="WfkUiSgYCt_blRrE_JdE-12" value="" style="endArrow=classic;html=1;rounded=0;entryX=0.5;entryY=1;entryDx=0;entryDy=0;" parent="1" target="WfkUiSgYCt_blRrE_JdE-10" edge="1">
          <mxGeometry width="50" height="50" relative="1" as="geometry">
            <mxPoint x="350" y="290" as="sourcePoint" />
            <mxPoint x="350" y="250" as="targetPoint" />
            <Array as="points">
              <mxPoint x="350" y="270" />
            </Array>
          </mxGeometry>
        </mxCell>
        <mxCell id="WfkUiSgYCt_blRrE_JdE-13" value="&lt;span style=&quot;font-size: 18px;&quot;&gt;&lt;b style=&quot;&quot;&gt;&lt;font data-font-src=&quot;https://fonts.googleapis.com/css?family=%E5%AE%8B%E4%BD%93&quot; face=&quot;宋体-简&quot;&gt;生成器&lt;/font&gt;&lt;/b&gt;&lt;/span&gt;" style="rounded=1;whiteSpace=wrap;html=1;shadow=0;fillColor=#FFFFFF;" parent="1" vertex="1">
          <mxGeometry x="414" y="190" width="120" height="60" as="geometry" />
        </mxCell>
        <mxCell id="WfkUiSgYCt_blRrE_JdE-14" value="" style="endArrow=classic;html=1;rounded=0;exitX=1;exitY=0.5;exitDx=0;exitDy=0;entryX=0;entryY=0.5;entryDx=0;entryDy=0;" parent="1" source="WfkUiSgYCt_blRrE_JdE-10" target="WfkUiSgYCt_blRrE_JdE-13" edge="1">
          <mxGeometry width="50" height="50" relative="1" as="geometry">
            <mxPoint x="360" y="300" as="sourcePoint" />
            <mxPoint x="360" y="260" as="targetPoint" />
            <Array as="points" />
          </mxGeometry>
        </mxCell>
        <mxCell id="WfkUiSgYCt_blRrE_JdE-15" value="" style="whiteSpace=wrap;html=1;aspect=fixed;shadow=0;fillColor=#FFFFFF;strokeColor=default;" parent="1" vertex="1">
          <mxGeometry x="470" y="80" width="30" height="30" as="geometry" />
        </mxCell>
        <mxCell id="WfkUiSgYCt_blRrE_JdE-16" value="" style="whiteSpace=wrap;html=1;shadow=0;fillColor=#FFFFFF;strokeColor=default;" parent="1" vertex="1">
          <mxGeometry x="480" y="90" width="30" height="30" as="geometry" />
        </mxCell>
        <mxCell id="WfkUiSgYCt_blRrE_JdE-17" value="" style="whiteSpace=wrap;html=1;shadow=0;fillColor=#FFFFFF;strokeColor=default;" parent="1" vertex="1">
          <mxGeometry x="490" y="100" width="30" height="30" as="geometry" />
        </mxCell>
        <mxCell id="WfkUiSgYCt_blRrE_JdE-18" value="" style="whiteSpace=wrap;html=1;shadow=0;fillColor=#FFFFFF;strokeColor=default;" parent="1" vertex="1">
          <mxGeometry x="500" y="110" width="30" height="30" as="geometry" />
        </mxCell>
        <mxCell id="WfkUiSgYCt_blRrE_JdE-19" value="" style="whiteSpace=wrap;html=1;shadow=0;fillColor=#FFFFFF;strokeColor=default;" parent="1" vertex="1">
          <mxGeometry x="510" y="120" width="30" height="30" as="geometry" />
        </mxCell>
        <mxCell id="WfkUiSgYCt_blRrE_JdE-21" value="&lt;b&gt;&lt;font data-font-src=&quot;https://fonts.googleapis.com/css?family=%E5%AE%8B%E4%BD%93&quot; face=&quot;宋体-简&quot; style=&quot;font-size: 18px;&quot;&gt;判别器&lt;/font&gt;&lt;/b&gt;" style="rounded=1;whiteSpace=wrap;html=1;shadow=0;fillColor=#FFFFFF;fontFamily=Times New Roman;" parent="1" vertex="1">
          <mxGeometry x="670" y="133" width="120" height="60" as="geometry" />
        </mxCell>
        <mxCell id="WfkUiSgYCt_blRrE_JdE-22" value="" style="edgeStyle=elbowEdgeStyle;elbow=horizontal;endArrow=classic;html=1;rounded=0;exitX=1;exitY=0.5;exitDx=0;exitDy=0;" parent="1" source="WfkUiSgYCt_blRrE_JdE-13" edge="1">
          <mxGeometry width="50" height="50" relative="1" as="geometry">
            <mxPoint x="600" y="220" as="sourcePoint" />
            <mxPoint x="600" y="170" as="targetPoint" />
            <Array as="points">
              <mxPoint x="570" y="170" />
            </Array>
          </mxGeometry>
        </mxCell>
        <mxCell id="WfkUiSgYCt_blRrE_JdE-23" value="" style="edgeStyle=elbowEdgeStyle;elbow=horizontal;endArrow=classic;html=1;rounded=0;" parent="1" edge="1">
          <mxGeometry width="50" height="50" relative="1" as="geometry">
            <mxPoint x="534" y="100" as="sourcePoint" />
            <mxPoint x="600" y="155" as="targetPoint" />
            <Array as="points">
              <mxPoint x="570" y="155" />
            </Array>
          </mxGeometry>
        </mxCell>
        <mxCell id="WfkUiSgYCt_blRrE_JdE-27" value="" style="shape=waypoint;sketch=0;fillStyle=solid;size=6;pointerEvents=1;points=[];fillColor=none;resizable=0;rotatable=0;perimeter=centerPerimeter;snapToPoint=1;shadow=0;" parent="1" vertex="1">
          <mxGeometry x="580" y="135" width="40" height="40" as="geometry" />
        </mxCell>
        <mxCell id="WfkUiSgYCt_blRrE_JdE-29" value="" style="shape=waypoint;sketch=0;fillStyle=solid;size=6;pointerEvents=1;points=[];fillColor=none;resizable=0;rotatable=0;perimeter=centerPerimeter;snapToPoint=1;shadow=0;" parent="1" vertex="1">
          <mxGeometry x="580" y="150" width="40" height="40" as="geometry" />
        </mxCell>
        <mxCell id="WfkUiSgYCt_blRrE_JdE-30" value="" style="shape=waypoint;sketch=0;fillStyle=solid;size=6;pointerEvents=1;points=[];fillColor=none;resizable=0;rotatable=0;perimeter=centerPerimeter;snapToPoint=1;shadow=0;" parent="1" vertex="1">
          <mxGeometry x="620" y="143" width="40" height="40" as="geometry" />
        </mxCell>
        <mxCell id="WfkUiSgYCt_blRrE_JdE-31" value="" style="endArrow=classic;html=1;rounded=0;" parent="1" source="WfkUiSgYCt_blRrE_JdE-30" edge="1">
          <mxGeometry width="50" height="50" relative="1" as="geometry">
            <mxPoint x="660" y="210" as="sourcePoint" />
            <mxPoint x="670" y="163" as="targetPoint" />
          </mxGeometry>
        </mxCell>
        <mxCell id="WfkUiSgYCt_blRrE_JdE-32" value="" style="endArrow=classic;html=1;rounded=0;" parent="1" source="WfkUiSgYCt_blRrE_JdE-27" target="WfkUiSgYCt_blRrE_JdE-30" edge="1">
          <mxGeometry width="50" height="50" relative="1" as="geometry">
            <mxPoint x="660" y="210" as="sourcePoint" />
            <mxPoint x="710" y="160" as="targetPoint" />
          </mxGeometry>
        </mxCell>
        <mxCell id="WfkUiSgYCt_blRrE_JdE-33" value="" style="endArrow=classic;startArrow=classic;html=1;rounded=0;dashed=1;" parent="1" edge="1">
          <mxGeometry width="50" height="50" relative="1" as="geometry">
            <mxPoint x="630" y="200" as="sourcePoint" />
            <mxPoint x="630" y="130" as="targetPoint" />
          </mxGeometry>
        </mxCell>
        <mxCell id="WfkUiSgYCt_blRrE_JdE-34" value="" style="endArrow=classic;html=1;rounded=0;exitX=1;exitY=0.5;exitDx=0;exitDy=0;entryX=0;entryY=0.5;entryDx=0;entryDy=0;" parent="1" source="WfkUiSgYCt_blRrE_JdE-21" target="LJu-U1HtzfOYV5o9qGT4-1" edge="1">
          <mxGeometry width="50" height="50" relative="1" as="geometry">
            <mxPoint x="790" y="220" as="sourcePoint" />
            <mxPoint x="820" y="163" as="targetPoint" />
          </mxGeometry>
        </mxCell>
        <mxCell id="WfkUiSgYCt_blRrE_JdE-37" style="edgeStyle=orthogonalEdgeStyle;rounded=0;orthogonalLoop=1;jettySize=auto;html=1;entryX=0.467;entryY=1;entryDx=0;entryDy=0;entryPerimeter=0;dashed=1;" parent="1" target="WfkUiSgYCt_blRrE_JdE-13" edge="1">
          <mxGeometry relative="1" as="geometry">
            <mxPoint x="870" y="340" as="targetPoint" />
            <Array as="points">
              <mxPoint x="900" y="320" />
              <mxPoint x="470" y="320" />
            </Array>
            <mxPoint x="900" y="270" as="sourcePoint" />
          </mxGeometry>
        </mxCell>
        <mxCell id="WfkUiSgYCt_blRrE_JdE-39" value="&lt;font data-font-src=&quot;https://fonts.googleapis.com/css?family=%E5%AE%8B%E4%BD%93&quot; face=&quot;宋体-简&quot; style=&quot;font-size: 18px; font-weight: normal;&quot;&gt;微调 训练&lt;/font&gt;" style="text;strokeColor=none;fillColor=none;html=1;fontSize=18;fontStyle=1;verticalAlign=middle;align=center;shadow=0;fontFamily=Times New Roman;" parent="1" vertex="1">
          <mxGeometry x="770" y="285" width="100" height="40" as="geometry" />
        </mxCell>
        <mxCell id="WfkUiSgYCt_blRrE_JdE-42" value="&lt;span style=&quot;font-size: 18px; font-weight: 400;&quot;&gt;&lt;font data-font-src=&quot;https://fonts.googleapis.com/css?family=%E5%AE%8B%E4%BD%93&quot; face=&quot;宋体-简&quot;&gt;样本分布空间&lt;/font&gt;&lt;/span&gt;" style="text;strokeColor=none;fillColor=none;html=1;fontSize=24;fontStyle=1;verticalAlign=middle;align=center;shadow=0;" parent="1" vertex="1">
          <mxGeometry x="220" y="105" width="100" height="40" as="geometry" />
        </mxCell>
        <mxCell id="WfkUiSgYCt_blRrE_JdE-43" value="&lt;span style=&quot;font-size: 18px; font-weight: 400;&quot;&gt;&lt;font face=&quot;宋体-简&quot; data-font-src=&quot;https://fonts.googleapis.com/css?family=%E5%AE%8B%E4%BD%93&quot;&gt;噪声&lt;/font&gt;&lt;/span&gt;" style="text;strokeColor=none;fillColor=none;html=1;fontSize=24;fontStyle=1;verticalAlign=middle;align=center;shadow=0;" parent="1" vertex="1">
          <mxGeometry x="300" y="310" width="100" height="40" as="geometry" />
        </mxCell>
        <mxCell id="WfkUiSgYCt_blRrE_JdE-44" value="&lt;font data-font-src=&quot;https://fonts.googleapis.com/css?family=%E5%AE%8B%E4%BD%93&quot; face=&quot;宋体-简&quot; style=&quot;font-size: 18px; font-weight: normal;&quot;&gt;真实数据样本&lt;/font&gt;" style="text;strokeColor=none;fillColor=none;html=1;fontSize=18;fontStyle=1;verticalAlign=middle;align=center;shadow=0;fontFamily=Times New Roman;" parent="1" vertex="1">
          <mxGeometry x="415" y="20" width="100" height="40" as="geometry" />
        </mxCell>
        <mxCell id="WfkUiSgYCt_blRrE_JdE-45" value="&lt;span style=&quot;font-weight: 400;&quot;&gt;&lt;font data-font-src=&quot;https://fonts.googleapis.com/css?family=%E5%AE%8B%E4%BD%93&quot; face=&quot;宋体-简&quot;&gt;生成伪造数据&lt;/font&gt;&lt;/span&gt;" style="text;strokeColor=none;fillColor=none;html=1;fontSize=18;fontStyle=1;verticalAlign=middle;align=center;shadow=0;fontFamily=Times New Roman;" parent="1" vertex="1">
          <mxGeometry x="534" y="230" width="100" height="40" as="geometry" />
        </mxCell>
        <mxCell id="LJu-U1HtzfOYV5o9qGT4-1" value="&lt;b&gt;&lt;font data-font-src=&quot;https://fonts.googleapis.com/css?family=%E5%AE%8B%E4%BD%93&quot; face=&quot;宋体-简&quot; style=&quot;font-size: 18px;&quot;&gt;判别器损失&lt;/font&gt;&lt;/b&gt;" style="rounded=1;whiteSpace=wrap;html=1;shadow=0;fillColor=#FFFFFF;fontFamily=Times New Roman;" parent="1" vertex="1">
          <mxGeometry x="840" y="95" width="120" height="60" as="geometry" />
        </mxCell>
        <mxCell id="LJu-U1HtzfOYV5o9qGT4-2" value="&lt;b&gt;&lt;font data-font-src=&quot;https://fonts.googleapis.com/css?family=%E5%AE%8B%E4%BD%93&quot; face=&quot;宋体-简&quot; style=&quot;font-size: 18px;&quot;&gt;生成器损失&lt;/font&gt;&lt;/b&gt;" style="rounded=1;whiteSpace=wrap;html=1;shadow=0;fillColor=#FFFFFF;fontFamily=Times New Roman;" parent="1" vertex="1">
          <mxGeometry x="840" y="210" width="120" height="60" as="geometry" />
        </mxCell>
        <mxCell id="LJu-U1HtzfOYV5o9qGT4-4" value="" style="endArrow=classic;html=1;rounded=0;exitX=1;exitY=0.5;exitDx=0;exitDy=0;entryX=0;entryY=0.5;entryDx=0;entryDy=0;" parent="1" source="WfkUiSgYCt_blRrE_JdE-21" target="LJu-U1HtzfOYV5o9qGT4-2" edge="1">
          <mxGeometry width="50" height="50" relative="1" as="geometry">
            <mxPoint x="800" y="173" as="sourcePoint" />
            <mxPoint x="850" y="135" as="targetPoint" />
          </mxGeometry>
        </mxCell>
        <mxCell id="LJu-U1HtzfOYV5o9qGT4-6" value="" style="endArrow=classic;html=1;rounded=0;strokeWidth=6;strokeColor=#000000;" parent="1" edge="1">
          <mxGeometry width="50" height="50" relative="1" as="geometry">
            <mxPoint x="820" y="60" as="sourcePoint" />
            <mxPoint x="670" y="60" as="targetPoint" />
          </mxGeometry>
        </mxCell>
        <mxCell id="LJu-U1HtzfOYV5o9qGT4-7" value="&lt;h6 style=&quot;font-size: 18px;&quot;&gt;&lt;span style=&quot;font-weight: 400;&quot;&gt;&lt;font data-font-src=&quot;https://fonts.googleapis.com/css?family=%E5%AE%8B%E4%BD%93&quot; face=&quot;宋体-简&quot;&gt;反向传播&lt;/font&gt;&lt;/span&gt;&lt;/h6&gt;" style="text;strokeColor=none;fillColor=none;html=1;fontSize=18;fontStyle=1;verticalAlign=middle;align=center;shadow=0;fontFamily=Times New Roman;" parent="1" vertex="1">
          <mxGeometry x="850" y="40" width="100" height="40" as="geometry" />
        </mxCell>
      </root>
    </mxGraphModel>
  </diagram>
</mxfile>
